<?xml version="1.0" encoding="utf-8"?>
<!-- Generator: Adobe Illustrator 23.0.0, SVG Export Plug-In . SVG Version: 6.00 Build 0)  -->
<svg version="1.1" id="instagram" xmlns="http://www.w3.org/2000/svg" xmlns:xlink="http://www.w3.org/1999/xlink" x="0px" y="0px"
	 viewBox="0 0 20 20" style="enable-background:new 0 0 20 20;" xml:space="preserve">
<style type="text/css">
	.st0{clip-path:url(#SVGID_2_);fill:#FFFFFF;}
	.st1{clip-path:url(#SVGID_4_);fill:#565656;}
	.st2{clip-path:url(#SVGID_6_);fill:#565656;}
	.st3{clip-path:url(#SVGID_8_);fill:#565656;}
</style>
<g>
	<g>
		<defs>
			<rect id="SVGID_1_" x="1" y="1" width="18" height="18"/>
		</defs>
		<clipPath id="SVGID_2_">
			<use xlink:href="#SVGID_1_"  style="overflow:visible;"/>
		</clipPath>
		<path class="st0" d="M19,10c0,5-4,9-9,9s-9-4-9-9s4-9,9-9S19,5,19,10"/>
	</g>
	<g>
		<defs>
			<rect id="SVGID_3_" x="1" y="1" width="18" height="18"/>
		</defs>
		<clipPath id="SVGID_4_">
			<use xlink:href="#SVGID_3_"  style="overflow:visible;"/>
		</clipPath>
		<path class="st1" d="M12.9,4.4H7.1c-1.6,0-2.9,1.3-2.9,2.8v5.6c0,1.5,1.3,2.8,2.9,2.8h5.8c1.6,0,2.9-1.3,2.9-2.8V7.2
			C15.8,5.6,14.5,4.4,12.9,4.4 M14.9,11.9c0,1.5-1.3,2.8-2.9,2.8H8c-1.6,0-2.9-1.3-2.9-2.8V8.1c0-1.5,1.3-2.8,2.9-2.8h4
			c1.6,0,2.9,1.3,2.9,2.8V11.9z"/>
	</g>
	<g>
		<defs>
			<rect id="SVGID_5_" x="1" y="1" width="18" height="18"/>
		</defs>
		<clipPath id="SVGID_6_">
			<use xlink:href="#SVGID_5_"  style="overflow:visible;"/>
		</clipPath>
		<path class="st2" d="M13.8,7.1c0,0.4-0.3,0.7-0.7,0.7s-0.7-0.3-0.7-0.7c0-0.4,0.3-0.7,0.7-0.7S13.8,6.7,13.8,7.1"/>
	</g>
	<g>
		<defs>
			<rect id="SVGID_7_" x="1" y="1" width="18" height="18"/>
		</defs>
		<clipPath id="SVGID_8_">
			<use xlink:href="#SVGID_7_"  style="overflow:visible;"/>
		</clipPath>
		<path class="st3" d="M10,7.3c-1.5,0-2.7,1.2-2.7,2.7s1.2,2.7,2.7,2.7s2.7-1.2,2.7-2.7S11.5,7.3,10,7.3 M10,11.8
			c-1,0-1.8-0.8-1.8-1.8S9,8.2,10,8.2S11.8,9,11.8,10S11,11.8,10,11.8"/>
	</g>
</g>
</svg>
