<svg xmlns="http://www.w3.org/2000/svg" viewBox="0 0 45 45"><path d="M36.36 14c-1.1.5-2.2.8-3.3.9 1.2-.7 2.1-1.9 2.5-3.2-1.1.7-2.4 1.2-3.7 1.4-1-1.1-2.5-1.8-4.1-1.8-1.5 0-3 .6-4.1 1.7s-1.7 2.6-1.7 4.1c0 .4.1.9.2 1.3-4.7-.2-9-2.4-11.9-6.1-.6.9-.8 1.9-.8 3 0 1.9 1 3.7 2.6 4.8-1-.1-1.9-.3-2.7-.8v.1c0 2.8 1.9 5.1 4.6 5.7-.5.1-1 .2-1.5.2-.4 0-.7 0-1.1-.1.8 2.3 2.9 3.9 5.4 4-2 1.6-4.6 2.5-7.2 2.5-.5 0-.9 0-1.4-.1 2.6 1.7 5.7 2.6 8.8 2.6 10.6 0 16.4-8.8 16.4-16.5v-.8c1.3-.8 2.3-1.8 3-2.9z" fill="#999"/></svg>